<?xml version="1.0" standalone="no"?><!DOCTYPE svg PUBLIC "-//W3C//DTD SVG 1.1//EN" "http://www.w3.org/Graphics/SVG/1.1/DTD/svg11.dtd"><svg t="1691128446145" class="icon" viewBox="0 0 1024 1024" version="1.1" xmlns="http://www.w3.org/2000/svg" p-id="767" xmlns:xlink="http://www.w3.org/1999/xlink" width="200" height="200"><path d="M120.364912 143.719298c120.364912 1.796491 235.340351 32.336842 337.740351 86.231579v591.045614c-102.4-52.098246-217.375439-82.638596-337.740351-89.824561V143.719298m-16.168421-53.894737H79.045614c-7.185965 0-12.575439 5.389474-12.575439 14.37193v680.870176h1.796492c167.073684 0 321.57193 50.301754 443.733333 132.940351V201.207018C395.22807 131.14386 255.101754 89.824561 104.196491 89.824561z" fill="#2D3234" p-id="768"></path><path d="M901.838596 143.719298v587.452632c-120.364912 7.185965-233.54386 37.726316-337.74035 89.824561V229.950877C664.701754 176.05614 781.473684 147.312281 901.838596 143.719298m14.37193-53.894737c-150.905263 0-291.031579 39.522807-407.803508 109.585965V916.210526c122.161404-82.638596 276.659649-132.940351 443.733333-132.940351h1.796491V104.196491c0-7.185965-5.389474-12.575439-12.575438-12.575438C934.175439 89.824561 925.192982 89.824561 916.210526 89.824561z" fill="#2D3234" p-id="769"></path><path d="M538.947368 215.578947h-3.592982s1.796491 0 1.796491 1.796492c0-1.796491 0-1.796491 1.796491-1.796492zM995.25614 215.578947c-7.185965 0-14.37193 7.185965-14.371929 14.37193v571.284211h-1.796492c-167.073684 0-321.57193 50.301754-443.733333 132.940351H970.105263c19.761404 0 37.726316-16.168421 37.726316-37.726316V229.950877c1.796491-8.982456-3.592982-14.37193-12.575439-14.37193z" fill="#2D3234" p-id="770"></path><path d="M485.052632 215.578947h3.592982s-1.796491 0-1.796491 1.796492c1.796491-1.796491 1.796491-1.796491-1.796491-1.796492zM30.540351 215.578947c7.185965 0 14.37193 7.185965 14.37193 14.37193v571.284211h1.796491c167.073684 0 321.57193 50.301754 443.733333 132.940351H53.894737c-19.761404 0-37.726316-16.168421-37.726316-37.726316V229.950877c0-8.982456 5.389474-14.37193 14.37193-14.37193z" fill="#2D3234" p-id="771"></path></svg>